<svg xmlns="http://www.w3.org/2000/svg" width="612" height="792" viewBox="0 0 612 792"><path d="M287.172 313.822c4.582-4.383 11.255-6.574 20.02-6.574 17.532 0 25.9 8.566 25.103 25.7l-8.367 151.207c0 4.383-1.593 7.97-4.78 10.758-3.187 2.79-7.173 4.383-11.952 4.78-4.78 0-8.667-1.49-11.654-4.48s-4.682-6.675-5.08-11.058l-8.367-151.208c-1.197-8.367.496-14.742 5.077-19.125zM306 511.05c-9.96 0-18.427 3.485-25.4 10.458-6.973 6.975-10.46 15.24-10.46 24.803 0 9.565 3.488 17.733 10.46 24.507 6.972 6.77 15.44 10.158 25.4 10.158s18.426-3.386 25.4-10.158c6.973-6.775 10.46-14.943 10.46-24.506s-3.488-17.828-10.46-24.802c-6.972-6.973-15.44-10.46-25.4-10.46zm262.373 117.14c0 7.968-2.49 14.74-7.47 20.32-4.983 5.577-10.86 8.366-17.634 8.366H68.73c-6.773 0-12.65-2.79-17.63-8.367s-7.47-12.35-7.47-20.32c0-5.18 1.194-9.962 3.585-14.345l237.27-464.977c1.992-3.585 5.08-6.773 9.263-9.562s8.268-4.184 12.252-4.184 8.068 1.395 12.252 4.184 7.273 5.976 9.264 9.562l237.27 464.977c2.392 4.384 3.587 9.165 3.587 14.346zM499.64 600.1L306 219.99 112.36 600.1h387.28z"/></svg>