<svg xmlns="http://www.w3.org/2000/svg" width="48" height="48" viewBox="0 0 48 48"><path d="M44.88 29.608c3.15-3.15 3.15-8.257 0-11.408-.59-.588-1.262-1.03-1.962-1.4.023-2.094-.757-4.194-2.354-5.792-.663-.663-1.425-1.153-2.226-1.54-.386-.8-.876-1.562-1.54-2.224-1.598-1.6-3.698-2.38-5.792-2.355-.37-.702-.812-1.375-1.4-1.963-3.15-3.15-8.258-3.15-11.407 0-.082.08-.136.174-.21.257-3.104-1.875-7.185-1.496-9.86 1.18-3.15 3.15-3.15 8.26 0 11.41 1.166 1.166 2.622 1.912 4.125 2.207-.212 1.797-1.955 14.77-9.515 24.043-.75.92-.655 2.264.218 3.067.82.756 2.068.792 2.934.088 9.403-7.646 22.237-9.376 23.985-9.583.293 1.504 1 2.926 2.168 4.094 3.15 3.15 8.252 3.144 11.402-.006 2.677-2.678 3.05-6.764 1.176-9.867.083-.074.176-.128.257-.21zm-30.09-3.644c.388.94.876 1.83 1.514 2.692L12.77 32.19c.825-2.232 1.51-4.333 2.02-6.226zm.935 9.182l3.564-3.565c.883.62 1.84 1.126 2.826 1.498-1.933.518-4.16 1.15-6.39 2.068z"/></svg>