<svg xmlns="http://www.w3.org/2000/svg" width="96" height="96" viewBox="0 0 96 96"><path d="M79.56 53.348c-.597-4.545-1.824-8.917-3.458-13.02-1.628-4.11-3.684-7.944-5.97-11.55-2.3-3.604-4.862-6.962-7.626-10.12-1.397-1.563-2.818-3.106-4.328-4.58-.754-.74-1.522-1.47-2.317-2.196l-1.22-1.096-.647-.553-.793-.65S48.487 5.25 40.943.876c1.19 8.73-7.538 21.564-8.015 22.52-.557 1.07-1.324 2.315-2.178 3.662l-2.854 4.298c-2.03 3.023-4.195 6.35-6.18 10.068-.97 1.875-1.927 3.827-2.733 5.918-.822 2.082-1.527 4.283-2.036 6.58-.52 2.295-.822 4.692-.878 7.105-.05 2.41.16 4.835.645 7.16.48 2.325 1.212 4.552 2.15 6.61.93 2.055 2.024 3.975 3.28 5.7 1.27 1.718 2.57 3.337 4.024 4.767 1.45 1.432 2.92 2.776 4.506 3.953 1.54 1.22 3.19 2.274 4.835 3.277.84.487 1.692.96 2.542 1.406.853.43 1.726.827 2.608 1.223l-2.51-5.09c-.81-1.664-1.577-3.316-2.27-4.954-1.39-3.276-2.503-6.504-3.12-9.59-.32-1.54-.487-3.036-.55-4.463-.05-1.43.014-2.785.21-4.073.4-2.577 1.243-4.87 2.47-7.172.618-1.147 1.327-2.296 2.12-3.46.81-1.156 1.668-2.345 2.64-3.534.938-1.207 1.984-2.418 3.06-3.685l3.396-3.942c1.185-1.373 2.406-2.82 3.65-4.42.067-.083.133-.17.2-.255.452.535.9 1.073 1.338 1.614 2.01 2.475 3.84 5.026 5.473 7.618 1.61 2.6 3 5.25 4.104 7.96 1.083 2.717 1.87 5.486 2.285 8.386.376 2.893.41 5.933-.087 9.1-.09.803-.27 1.594-.422 2.407-.197.803-.394 1.615-.635 2.43-.428 1.66-1.066 3.276-1.712 4.963-.342.83-.7 1.666-1.09 2.503-.364.853-.786 1.68-1.21 2.52-.826 1.71-1.78 3.368-2.708 5.138 1.854-.707 3.637-1.58 5.38-2.572 1.728-1.003 3.414-2.133 5.015-3.414 1.62-1.27 3.13-2.704 4.567-4.27 1.436-1.564 2.734-3.298 3.925-5.152 1.18-1.86 2.213-3.86 3.044-5.975.833-2.108 1.505-4.32 1.954-6.588.89-4.538.987-9.262.385-13.804z"/></svg>