<?xml version="1.0" encoding="utf-8"?>
<!-- Generator: Adobe Illustrator 16.0.0, SVG Export Plug-In . SVG Version: 6.00 Build 0)  -->
<!DOCTYPE svg PUBLIC "-//W3C//DTD SVG 1.1//EN" "http://www.w3.org/Graphics/SVG/1.1/DTD/svg11.dtd">
<svg version="1.1" xmlns="http://www.w3.org/2000/svg" xmlns:xlink="http://www.w3.org/1999/xlink" x="0px" y="0px" width="96px"
	 height="96px" viewBox="0 0 96 96" enable-background="new 0 0 96 96" xml:space="preserve">
<g id="Layer_1">
	<g>
		<path d="M79.559,53.348c-0.596-4.545-1.823-8.917-3.457-13.021c-1.628-4.11-3.684-7.943-5.971-11.549
			c-2.299-3.604-4.861-6.962-7.625-10.12c-1.397-1.563-2.818-3.106-4.328-4.58c-0.754-0.739-1.522-1.469-2.317-2.196l-1.22-1.096
			l-0.648-0.553L53.2,9.583c0,0-4.713-4.334-12.257-8.707c1.189,8.729-7.538,21.564-8.015,22.521
			c-0.557,1.07-1.324,2.314-2.178,3.661l-2.854,4.298c-2.031,3.023-4.195,6.349-6.18,10.068c-0.969,1.875-1.927,3.827-2.733,5.918
			c-0.822,2.082-1.527,4.283-2.036,6.581c-0.519,2.294-0.822,4.691-0.878,7.104c-0.05,2.411,0.161,4.835,0.646,7.159
			c0.481,2.326,1.212,4.553,2.149,6.61c0.931,2.056,2.025,3.976,3.282,5.7c1.269,1.719,2.568,3.338,4.023,4.768
			c1.45,1.432,2.92,2.776,4.507,3.953c1.541,1.219,3.19,2.274,4.835,3.277c0.84,0.487,1.691,0.961,2.541,1.406
			c0.853,0.431,1.726,0.827,2.608,1.223l-2.511-5.089c-0.809-1.665-1.576-3.317-2.269-4.955c-1.389-3.275-2.503-6.503-3.121-9.589
			c-0.32-1.54-0.486-3.036-0.55-4.463c-0.049-1.43,0.015-2.785,0.212-4.073c0.4-2.577,1.242-4.871,2.47-7.172
			c0.617-1.147,1.326-2.296,2.12-3.459c0.809-1.157,1.667-2.346,2.638-3.535c0.939-1.207,1.985-2.418,3.06-3.685l3.397-3.942
			c1.185-1.374,2.406-2.821,3.651-4.42c0.066-0.084,0.132-0.172,0.198-0.256c0.453,0.535,0.9,1.073,1.339,1.614
			c2.01,2.476,3.84,5.027,5.473,7.619c1.61,2.6,3,5.25,4.104,7.96c1.082,2.717,1.869,5.486,2.284,8.386
			c0.376,2.893,0.411,5.933-0.087,9.1c-0.089,0.803-0.269,1.594-0.422,2.407c-0.197,0.802-0.394,1.614-0.635,2.43
			c-0.429,1.658-1.067,3.275-1.713,4.962c-0.342,0.831-0.701,1.666-1.09,2.503c-0.364,0.853-0.786,1.681-1.211,2.521
			c-0.825,1.708-1.78,3.367-2.707,5.137c1.854-0.707,3.637-1.58,5.379-2.572c1.729-1.003,3.415-2.133,5.016-3.414
			c1.619-1.27,3.13-2.704,4.567-4.271c1.436-1.563,2.734-3.297,3.925-5.151c1.181-1.859,2.213-3.859,3.044-5.975
			c0.832-2.109,1.504-4.32,1.953-6.589C80.063,62.614,80.161,57.89,79.559,53.348z"/>
	</g>
</g>
<g id="Layer_2">
</g>
</svg>
