<?xml version="1.0" encoding="utf-8"?>
<!-- Generator: Adobe Illustrator 16.0.4, SVG Export Plug-In . SVG Version: 6.00 Build 0)  -->
<!DOCTYPE svg PUBLIC "-//W3C//DTD SVG 1.1//EN" "http://www.w3.org/Graphics/SVG/1.1/DTD/svg11.dtd">
<svg version="1.1" id="Capa_1" xmlns="http://www.w3.org/2000/svg" xmlns:xlink="http://www.w3.org/1999/xlink" x="0px" y="0px"
	 width="612px" height="792px" viewBox="0 0 612 792" enable-background="new 0 0 612 792" xml:space="preserve">
<path d="M287.172,313.822c4.582-4.383,11.255-6.574,20.021-6.574c17.531,0,25.898,8.566,25.102,25.699l-8.367,151.208
	c0,4.383-1.593,7.969-4.779,10.758c-3.188,2.789-7.174,4.383-11.953,4.781c-4.781,0-8.667-1.492-11.654-4.482
	s-4.682-6.674-5.08-11.057l-8.367-151.208C280.898,324.58,282.591,318.205,287.172,313.822z M306,511.049
	c-9.961,0-18.427,3.486-25.4,10.459c-6.973,6.975-10.459,15.241-10.459,24.803c0,9.564,3.487,17.732,10.459,24.506
	c6.972,6.771,15.439,10.158,25.4,10.158s18.426-3.386,25.4-10.158c6.973-6.775,10.459-14.943,10.459-24.506
	s-3.487-17.829-10.459-24.803C324.428,514.535,315.961,511.049,306,511.049z M568.373,628.191c0,7.967-2.491,14.74-7.471,20.318
	c-4.982,5.578-10.859,8.367-17.633,8.367H68.731c-6.774,0-12.65-2.789-17.631-8.367s-7.471-12.35-7.471-20.318
	c0-5.182,1.195-9.963,3.586-14.346l237.269-464.977c1.993-3.585,5.08-6.773,9.264-9.562s8.268-4.184,12.252-4.184
	c3.984,0,8.068,1.395,12.252,4.184s7.273,5.976,9.264,9.562l237.271,464.977C567.178,618.229,568.373,623.01,568.373,628.191z
	 M499.641,600.1L306,219.99L112.359,600.1H499.641z"/>
</svg>
